<?xml version="1.0" encoding="utf-8"?>
<!-- Generator: Adobe Illustrator 26.0.0, SVG Export Plug-In . SVG Version: 6.00 Build 0)  -->
<svg version="1.1"
	 id="svg214" sodipodi:docname="18.svg" xmlns:cc="http://creativecommons.org/ns#" xmlns:dc="http://purl.org/dc/elements/1.1/" xmlns:inkscape="http://www.inkscape.org/namespaces/inkscape" xmlns:rdf="http://www.w3.org/1999/02/22-rdf-syntax-ns#" xmlns:sodipodi="http://sodipodi.sourceforge.net/DTD/sodipodi-0.dtd" xmlns:svg="http://www.w3.org/2000/svg"
	 xmlns="http://www.w3.org/2000/svg" xmlns:xlink="http://www.w3.org/1999/xlink" x="0px" y="0px" viewBox="0 0 666.7 666.7"
	 style="enable-background:new 0 0 666.7 666.7;" xml:space="preserve">
<style type="text/css">
	.st0{fill:#FFFFFF;}
</style>
<sodipodi:namedview  bordercolor="#666666" borderopacity="1" gridtolerance="10" guidetolerance="10" id="namedview216" inkscape:current-layer="g222" inkscape:cx="333.33334" inkscape:cy="333.33334" inkscape:pageopacity="0" inkscape:pageshadow="2" inkscape:window-height="480" inkscape:window-maximized="0" inkscape:window-width="772" inkscape:window-x="0" inkscape:window-y="0" inkscape:zoom="1.23" objecttolerance="10" pagecolor="#ffffff" showgrid="false">
	</sodipodi:namedview>
<g>
	<g>
		<path class="st0" d="M332.1,605C182.3,605,60.5,483.2,60.5,333.4S182.3,61.9,332.1,61.9s271.6,121.8,271.6,271.6
			S481.8,605,332.1,605z M332.1,84.9c-137,0-248.5,111.5-248.5,248.5S195,582,332.1,582s248.5-111.5,248.5-248.5
			S469.1,84.9,332.1,84.9z"/>
	</g>
	<path class="st0" d="M457,382.1c0,8.1,6.3,14.5,14.5,14.5c7.9,0,14.5-6.3,14.5-14.5v-35.3h36c7.6,0,14-6.1,14-14
		c0-7.6-6.3-14-14-14h-36v-35.3c0-8.1-6.6-14.5-14.5-14.5c-8.1,0-14.5,6.3-14.5,14.5V319h-36c-7.6,0-14,6.3-14,14
		c0,7.9,6.3,14,14,14h36V382.1z M318.8,398.6c-23.3,0-37-12.2-37-26.6v-0.5c0-16.2,16-26.9,37-26.9s37.3,10.7,37.3,26.9v0.5
		C356.1,386.7,342.1,398.6,318.8,398.6 M318.8,319.7c-18.3,0-31.7-10.9-31.7-26.4v-0.5c0-13.4,12.7-24.6,31.7-24.6
		s31.7,11.2,31.7,24.9v0.5C350.5,308.8,337,319.7,318.8,319.7 M318.8,424.8c38.8,0,67.7-19.8,67.7-51.5v-0.5
		c0-21.1-12.4-33.7-32-42.6c15-7.9,25.9-19.8,25.9-39.6v-0.5c0-27.4-26.1-48-61.6-48s-61.6,20.8-61.6,48v0.5
		c0,19.8,10.9,31.7,25.9,39.6c-20,8.4-32,21.8-32,43.1v0.5C251,404.5,279.9,424.8,318.8,424.8 M191.2,408c0,8.6,7.1,15.5,15.5,15.5
		c8.6,0,15.5-6.8,15.5-15.5V257.8c0-8.6-6.6-15.5-15.5-15.5h-0.5c-4.6,0-9.1,1-15.2,2.8l-26.9,8.6c-6.3,1.8-10.4,6.9-10.4,13.5
		c0,7.1,6.3,13.2,13.7,13.2c1.5,0,3.8-0.3,5.6-0.8l18.3-5.6V408z"/>
</g>
</svg>
