<?xml version="1.0" encoding="UTF-8" standalone="no"?>
<svg
   xmlns:dc="http://purl.org/dc/elements/1.1/"
   xmlns:cc="http://creativecommons.org/ns#"
   xmlns:rdf="http://www.w3.org/1999/02/22-rdf-syntax-ns#"
   xmlns:svg="http://www.w3.org/2000/svg"
   xmlns="http://www.w3.org/2000/svg"
   xmlns:sodipodi="http://sodipodi.sourceforge.net/DTD/sodipodi-0.dtd"
   xmlns:inkscape="http://www.inkscape.org/namespaces/inkscape"
   inkscape:version="1.0 (4035a4fb49, 2020-05-01)"
   sodipodi:docname="facebook.svg"
   viewBox="0 0 666.66669 666.66669"
   height="666.66669"
   width="666.66669"
   xml:space="preserve"
   id="svg170"
   version="1.1"><metadata
     id="metadata176"><rdf:RDF><cc:Work
         rdf:about=""><dc:format>image/svg+xml</dc:format><dc:type
           rdf:resource="http://purl.org/dc/dcmitype/StillImage" /><dc:title></dc:title></cc:Work></rdf:RDF></metadata><defs
     id="defs174"><clipPath
       id="clipPath186"
       clipPathUnits="userSpaceOnUse"><path
         id="path184"
         d="M 0,0 H 500 V 500 H 0 Z" /></clipPath></defs><sodipodi:namedview
     inkscape:current-layer="g178"
     inkscape:window-maximized="0"
     inkscape:window-y="0"
     inkscape:window-x="0"
     inkscape:cy="333.33334"
     inkscape:cx="333.33334"
     inkscape:zoom="1.23"
     showgrid="false"
     id="namedview172"
     inkscape:window-height="480"
     inkscape:window-width="762"
     inkscape:pageshadow="2"
     inkscape:pageopacity="0"
     guidetolerance="10"
     gridtolerance="10"
     objecttolerance="10"
     borderopacity="1"
     bordercolor="#666666"
     pagecolor="#ffffff" /><g
     transform="matrix(1.3333333,0,0,-1.3333333,0,666.66667)"
     inkscape:label="fb"
     inkscape:groupmode="layer"
     id="g178"><g
       id="g180"><g
         clip-path="url(#clipPath186)"
         id="g182"><g
           transform="translate(495.2379,248.5099)"
           id="g188"><path
             id="path190"
             style="fill:#ffffff;fill-opacity:1;fill-rule:nonzero;stroke:none"
             d="m 0,0 c 0,135.441 -109.797,245.238 -245.238,245.238 -135.441,0 -245.238,-109.797 -245.238,-245.238 0,-122.405 89.68,-223.861 206.92,-242.258 v 171.369 h -62.268 V 0 h 62.268 v 54.029 c 0,61.463 36.612,95.413 92.629,95.413 26.832,0 54.897,-4.79 54.897,-4.79 V 84.301 h -30.925 c -30.464,0 -39.964,-18.904 -39.964,-38.298 V 0 h 68.015 l -10.873,-70.889 h -57.142 V -242.258 C -89.68,-223.861 0,-122.405 0,0" /></g></g></g></g></svg>
