<?xml version="1.0" encoding="UTF-8" standalone="no"?>
<svg
   xmlns:dc="http://purl.org/dc/elements/1.1/"
   xmlns:cc="http://creativecommons.org/ns#"
   xmlns:rdf="http://www.w3.org/1999/02/22-rdf-syntax-ns#"
   xmlns:svg="http://www.w3.org/2000/svg"
   xmlns="http://www.w3.org/2000/svg"
   xmlns:sodipodi="http://sodipodi.sourceforge.net/DTD/sodipodi-0.dtd"
   xmlns:inkscape="http://www.inkscape.org/namespaces/inkscape"
   inkscape:version="1.0 (4035a4fb49, 2020-05-01)"
   sodipodi:docname="instagram.svg"
   viewBox="0 0 666.66669 666.66669"
   height="666.66669"
   width="666.66669"
   xml:space="preserve"
   id="svg144"
   version="1.1"><metadata
     id="metadata150"><rdf:RDF><cc:Work
         rdf:about=""><dc:format>image/svg+xml</dc:format><dc:type
           rdf:resource="http://purl.org/dc/dcmitype/StillImage" /><dc:title></dc:title></cc:Work></rdf:RDF></metadata><defs
     id="defs148"><clipPath
       id="clipPath160"
       clipPathUnits="userSpaceOnUse"><path
         id="path158"
         d="M 0,0 H 500 V 500 H 0 Z" /></clipPath></defs><sodipodi:namedview
     inkscape:current-layer="g152"
     inkscape:window-maximized="1"
     inkscape:window-y="-9"
     inkscape:window-x="-9"
     inkscape:cy="333.33334"
     inkscape:cx="333.33334"
     inkscape:zoom="1.23"
     showgrid="false"
     id="namedview146"
     inkscape:window-height="991"
     inkscape:window-width="1920"
     inkscape:pageshadow="2"
     inkscape:pageopacity="0"
     guidetolerance="10"
     gridtolerance="10"
     objecttolerance="10"
     borderopacity="1"
     bordercolor="#666666"
     pagecolor="#ffffff" /><g
     transform="matrix(1.3333333,0,0,-1.3333333,0,666.66667)"
     inkscape:label="instagram"
     inkscape:groupmode="layer"
     id="g152"><g
       id="g154"><g
         clip-path="url(#clipPath160)"
         id="g156"><g
           transform="translate(250,495.9726)"
           id="g162"><path
             id="path164"
             style="fill:#ffffff;fill-opacity:1;fill-rule:nonzero;stroke:none"
             d="m 0,0 c -66.809,0 -75.172,-0.273 -101.409,-1.476 -26.182,-1.202 -44.07,-5.357 -59.716,-11.438 -16.412,-6.176 -31.279,-15.857 -43.565,-28.368 -12.509,-12.288 -22.19,-27.154 -28.369,-43.565 -6.081,-15.646 -10.249,-33.534 -11.437,-59.73 -1.189,-26.223 -1.476,-34.573 -1.476,-101.395 0,-66.823 0.273,-75.172 1.476,-101.409 1.202,-26.183 5.356,-44.071 11.437,-59.717 6.176,-16.412 15.857,-31.279 28.369,-43.565 13.665,-13.665 27.399,-22.083 43.565,-28.368 15.646,-6.082 33.534,-10.249 59.716,-11.438 26.237,-1.189 34.6,-1.476 101.409,-1.476 66.809,0 75.172,0.273 101.409,1.476 26.182,1.202 44.07,5.356 59.717,11.438 16.411,6.176 31.278,15.857 43.564,28.368 13.665,13.665 22.083,27.399 28.369,43.565 6.081,15.646 10.249,33.534 11.437,59.717 1.189,26.237 1.476,34.6 1.476,101.409 0,66.809 -0.273,75.172 -1.476,101.408 -1.202,26.183 -5.356,44.071 -11.437,59.717 -6.177,16.411 -15.857,31.278 -28.369,43.565 -12.288,12.509 -27.154,22.189 -43.564,28.368 -15.647,6.081 -33.535,10.249 -59.731,11.438 C 75.172,-0.287 66.823,0 0,0 m 0,-44.316 c 65.675,0 73.464,-0.26 99.4,-1.435 23.982,-1.093 37.005,-5.097 45.669,-8.472 11.479,-4.455 19.678,-9.798 28.287,-18.393 8.609,-8.61 13.938,-16.809 18.393,-28.287 3.375,-8.664 7.379,-21.687 8.473,-45.669 1.175,-25.937 1.434,-33.726 1.434,-99.4 0,-65.675 -0.259,-73.464 -1.434,-99.4 -1.094,-23.983 -5.098,-37.006 -8.473,-45.67 -3.939,-10.685 -10.226,-20.351 -18.393,-28.287 -8.609,-8.609 -16.808,-13.938 -28.287,-18.393 -8.664,-3.375 -21.687,-7.379 -45.669,-8.472 -25.936,-1.176 -33.712,-1.435 -99.4,-1.435 -65.688,0 -73.464,0.259 -99.4,1.435 -23.982,1.093 -37.005,5.097 -45.669,8.472 -10.685,3.94 -20.351,10.225 -28.287,18.393 -8.167,7.937 -14.452,17.603 -18.393,28.287 -3.375,8.664 -7.379,21.687 -8.473,45.67 -1.175,25.936 -1.434,33.725 -1.434,99.4 0,65.674 0.259,73.463 1.434,99.4 1.094,23.982 5.098,37.005 8.473,45.669 4.455,11.478 9.798,19.677 18.393,28.287 8.609,8.609 16.808,13.938 28.287,18.393 8.664,3.375 21.687,7.379 45.669,8.472 25.936,1.175 33.725,1.435 99.4,1.435" /></g><g
           transform="translate(250,167.9273)"
           id="g166"><path
             id="path168"
             style="fill:#ffffff;fill-opacity:1;fill-rule:nonzero;stroke:none"
             d="m 0,0 c -45.327,-0.004 -82.075,36.739 -82.08,82.066 -0.004,45.327 36.739,82.076 82.066,82.08 H 0 C 45.327,164.142 82.07,127.393 82.066,82.066 82.062,36.743 45.322,0.003 0,0 M 0,208.503 C -69.825,208.526 -126.449,151.942 -126.473,82.115 -126.497,12.291 -69.912,-44.333 -0.086,-44.357 H 0 C 69.825,-44.349 126.423,12.262 126.415,82.088 126.407,151.902 69.814,208.495 0,208.503 m 163.216,2.296 c 0,-16.507 -13.38,-29.886 -29.885,-29.886 -16.505,0 -29.886,13.379 -29.886,29.886 0,16.504 13.381,29.885 29.886,29.885 16.505,0 29.885,-13.381 29.885,-29.885" /></g></g></g></g></svg>
