<?xml version="1.0" encoding="utf-8"?>
<!-- Generator: Adobe Illustrator 22.0.0, SVG Export Plug-In . SVG Version: 6.00 Build 0)  -->
<svg version="1.1" id="Layer_1" xmlns="http://www.w3.org/2000/svg" xmlns:xlink="http://www.w3.org/1999/xlink" x="0px" y="0px"
	 viewBox="0 0 700 200" style="enable-background:new 0 0 700 200;" xml:space="preserve">
<style type="text/css">
	.st0{clip-path:url(#SVGID_2_);fill:#FFFFFF;}
	.st1{clip-path:url(#SVGID_2_);fill:#26247B;}
	.st2{clip-path:url(#SVGID_2_);fill:#EC1C24;}
</style>
<g>
	<defs>
		<rect id="SVGID_1_" x="1" y="22" width="697" height="154.9"/>
	</defs>
	<clipPath id="SVGID_2_">
		<use xlink:href="#SVGID_1_"  style="overflow:visible;"/>
	</clipPath>
	<path class="st0" d="M656.5,176.6c9.9,0,18.9-8,20.8-18.4l20.4-113.9c1-5.8-0.3-11.4-3.6-15.7c-3.3-4.2-8.2-6.7-13.6-6.7L44.8,22.2
		c-12.2,0-23.5,9.4-25.6,21.5c0,0.1-17.8,106-17.8,106c-1.2,6.8,0.4,14.1,4.5,19.4c3.8,5,9.4,7.8,15.3,7.8L656.5,176.6z"/>
	<path class="st1" d="M175.5,42.4c1-5.4,5.9-9.8,11-9.8h494c5,0,8.4,4.4,7.5,9.8l-20.5,113.9c-1,5.3-5.9,9.6-11,9.6H162.9
		c-5.1,0-8.4-4.4-7.5-9.6L175.5,42.4z"/>
	<path class="st0" d="M310.5,57c0.5-3,3.3-5.4,6.1-5.4l18.1,0.1c2.8,0,4.7,2.4,4.1,5.4l-15,85.5c-0.5,3-3.3,5.5-6.1,5.5l-18.4-0.1
		c-2.8,0-4.7-2.5-4.2-5.5L310.5,57z"/>
	<path class="st0" d="M519.3,50.7c-27.3-2.5-48.2,0-48.2,0s-20.2-0.2-25.5,23.7c0,0-4.9,16.4-6.4,38.5c0,0-6.8,36,25.7,36
		c0,0,17.9,2.9,47.3,0c0,0,19.8,0,26.6-24.7c7.1-24.3,6.2-38.4,6.2-38.4S548.9,51.2,519.3,50.7 M514,114.2c-0.6,3.5-3.8,6.3-7.1,6.3
		h-37.4c-3.3,0-5.4-2.8-4.8-6.3l5.4-29.5c0.6-3.5,3.8-6.3,7.1-6.3h37c3.3,0,5.5,2.8,4.9,6.3L514,114.2z"/>
	<path class="st0" d="M555,148c-6.8,0-12.4-6-12.4-13.3c0-7.4,5.6-13.3,12.4-13.3l7.7-0.1h48.2c3.1,0,4.6-3.9,4.6-3.9
		c0.8-7.3-4.7-6.6-4.7-6.6h-36.4c-25.2,0-23.6-25-23.6-25c1-35.7,28-34.5,28-34.5H628l9.3-0.1c6.9,0,12.4,6,12.4,13.3
		c0,7.4-5.5,13.3-12.4,13.3h-57.2c-0.3,0-5,0.2-5,5.5c0,5.7,5,5.2,5,5.2h35.3c26.6,0,24.8,26,24.8,26c-1.3,34.7-27.9,33.4-27.9,33.4
		s-37.5,0-45.7,0H555z"/>
	<path class="st0" d="M215.2,51.7c-7.2,0-13.2,6.3-13.2,14.1c0,7.8,5.9,14.1,13.2,14.1h15.3c2.8,0,4.1,4,3.6,7l-8.8,47.9
		c-1.3,6.9,5.6,13.3,12.6,13.3l9.8,0c2.8,0,5.5-2.5,6.1-5.5l9.5-55.6c0.5-3,2.4-6.3,6.1-6.3h22.8c2.8,0,5.6-1.6,6.1-4.6l3.4-18.9
		c0.5-3-1.4-5.4-4.2-5.4H215.2z"/>
	<path class="st0" d="M411,51.7l-55.2-0.1c0,0-4.1-0.1-4.8,4.3l-15.6,86.3c0,0-0.5,5.9,4.4,5.9h15.4c0,0,4.5,0.1,5.3-4.2
		c0.7-3.9,2.8-15.3,2.8-15.3s0.8-3.9,4.1-3.9h37.2c0,0,30.9,0.7,33-38.6C437.6,86,439.3,51.7,411,51.7 M413.6,87.5
		c-1.3,9.5-6.6,10.9-10.4,10.9H369l3.9-20.5h33.5C406.4,77.8,414.9,78.2,413.6,87.5"/>
	<path class="st2" d="M132.2,166.2c7,0,14-7.3,15.3-14.6l18-105.9c1.3-7.4-2.8-12.9-9.7-12.9h-111c-7,0-14.6,5.5-15.9,12.9
		L11.1,151.6c-1.3,7.3,3.1,14.6,10.1,14.6H132.2z"/>
	<path class="st0" d="M94.1,81.3c12.6,0,23-10.8,23.5-24.3c0.4-13.4-9.4-24.3-21.8-24.3c-12.5,0-23,10.8-23.4,24.3
		C71.9,70.5,81.7,81.3,94.1,81.3"/>
	<path class="st1" d="M94.4,74.2c8.8,0,16.2-7.7,16.6-17.2c0.3-9.5-6.6-17.2-15.4-17.2c-8.9,0-16.3,7.7-16.6,17.2
		C78.6,66.5,85.5,74.2,94.4,74.2"/>
	<path class="st0" d="M90.5,55.4c2.8,0,5.1-2.5,5.3-5.5c0.1-3-2.1-5.4-4.9-5.4c-2.8,0-5,2.4-5.2,5.4C85.5,52.9,87.7,55.4,90.5,55.4"
		/>
	<path class="st0" d="M119.2,81.4H59.6c-9.3,0-16.9,8.1-16.9,18.2c0,10,7.6,18.1,16.9,18.1h7.1l-4.9,30.1c0,10,7.6,18.3,16.9,18.3
		c8.5,0,15.6-6.8,16.8-15.6l5.6-32.8h18.2c9.4,0,17-8.1,17-18.1C136.2,89.5,128.6,81.4,119.2,81.4"/>
	<path class="st1" d="M82.5,88.6H59.6c-5.6,0-10.2,4.9-10.2,11.1c0,6.1,4.5,10.9,10.2,10.9l15.1,0l-6.1,37.3c0,6.1,4.6,11,10.3,11
		c5.3,0,9.2-4.6,10.1-9.8l6.3-38C99.7,88,82.5,88.6,82.5,88.6"/>
	<path class="st1" d="M119.2,110.7c5.7,0,10.3-5,10.3-11.1c0-6.1-4.6-11.1-10.3-11.1H86.7c0,0,18.9,1.9,15.5,22.2H119.2z"/>
</g>
</svg>
