<?xml version="1.0" encoding="utf-8"?>
<!-- Generator: Adobe Illustrator 23.0.3, SVG Export Plug-In . SVG Version: 6.00 Build 0)  -->
<svg version="1.1" id="Layer_1" xmlns="http://www.w3.org/2000/svg" xmlns:xlink="http://www.w3.org/1999/xlink" x="0px" y="0px"
	 viewBox="0 0 185.5 60" style="enable-background:new 0 0 185.5 60;" xml:space="preserve">
<style type="text/css">
	.st0{fill-rule:evenodd;clip-rule:evenodd;fill:#FFFFFF;}
	.st1{fill-rule:evenodd;clip-rule:evenodd;fill:#26247B;}
	.st2{fill-rule:evenodd;clip-rule:evenodd;fill:#ED1C24;}
</style>
<path class="st0" d="M164.39,50.6c2.86,0,5.47-2.13,6-4.9l5.89-30.4c0.3-1.54-0.09-3.05-1.04-4.2c-0.95-1.13-2.37-1.78-3.92-1.78
	L21.77,9.39c-3.53,0-6.79,2.51-7.41,5.73c-0.01,0.04-5.14,28.3-5.14,28.3c-0.35,1.82,0.13,3.77,1.3,5.18
	c1.1,1.33,2.72,2.07,4.43,2.07L164.39,50.6"/>
<g>
	<path class="st1" d="M59.87,14.92c0.28-1.42,1.77-2.58,3.29-2.58h107.99c1.54,0,2.53,1.16,2.24,2.58l-6.15,30.36
		c-0.28,1.42-1.75,2.58-3.29,2.58H56.07c-1.52,0-2.52-1.16-2.24-2.58L59.87,14.92"/>
	<path class="st2" d="M47.01,47.8c2.01,0,4-1.95,4.37-3.9l5.21-28.13c0.37-1.97-0.8-3.44-2.81-3.44H21.8
		c-2.01,0-4.21,1.46-4.58,3.44L12.11,43.9c-0.37,1.95,0.9,3.9,2.91,3.9H47.01"/>
	<path class="st0" d="M36.03,25.24c3.59,0,6.61-2.89,6.75-6.46c0.12-3.56-2.69-6.44-6.3-6.44c-3.59,0-6.61,2.88-6.73,6.44
		C29.62,22.36,32.44,25.24,36.03,25.24"/>
	<path class="st1" d="M36.11,23.35c2.54,0,4.68-2.03,4.76-4.57c0.08-2.52-1.91-4.55-4.45-4.55c-2.54,0-4.68,2.03-4.76,4.55
		C31.55,21.32,33.54,23.35,36.11,23.35"/>
	<path class="st0" d="M34.96,18.33c0.8,0,1.48-0.63,1.5-1.42c0.04-0.79-0.6-1.44-1.39-1.44c-0.8,0-1.46,0.65-1.5,1.44
		C33.54,17.7,34.16,18.33,34.96,18.33"/>
	<path class="st0" d="M43.25,25.26H26.09c-2.69,0-4.89,2.15-4.89,4.82c0,2.66,2.2,4.82,4.89,4.82h2.03l-1.44,8.03
		c0,2.66,2.18,4.82,4.88,4.82c2.44,0,4.48-1.79,4.82-4.13l1.62-8.72h5.24c2.69,0,4.88-2.15,4.88-4.82
		C48.14,27.42,45.94,25.26,43.25,25.26"/>
	<path class="st1" d="M32.68,27.15h-6.59c-1.64,0-2.96,1.32-2.96,2.93c0,1.61,1.31,2.93,2.96,2.93l4.33-0.04l-1.77,9.92
		c0,1.61,1.31,2.93,2.96,2.93c1.52,0,2.67-1.22,2.94-2.58l1.83-10.12C37.63,27.03,32.68,27.15,32.68,27.15"/>
	<path class="st1" d="M43.25,33.05c1.64,0,2.96-1.36,2.96-2.97c0-1.61-1.31-2.93-2.96-2.93h-9.36c0,0,5.42,0.51,4.45,5.89H43.25"/>
	<path class="st2" d="M134.62,25.73h-4.93c-0.88,0-1.33,0.73-1.46,1.4c0,0-1.46,7.46-2.18,11c-0.72,3.52-4,2.78-4,2.78
		c-1.66,0-3.33-1.4-3-2.97l2.11-10.65c0.12-0.65-0.19-1.54-0.88-1.54h-3.68c-1.76,0-3.18-1.4-3.18-3.15c0-1.73,1.5-3.37,3.24-3.37
		h19.28c0,0,3.08,0,2.3,3.31C137.4,26.2,134.62,25.73,134.62,25.73"/>
	<path class="st2" d="M79.18,34.99h-7.51c-0.69,0-0.95-0.42-0.82-1.53l2.36-12.97c0.13-0.68-0.34-1.23-1.03-1.23h-4.64
		c-0.69,0-1.37,0.55-1.5,1.23l-2.41,13.26c-1.33,7.01,4.47,7.18,4.47,7.18h11.16c1.68,0,2.92-1.32,2.92-2.94
		C82.18,36.35,80.81,34.99,79.18,34.99"/>
	<path class="st2" d="M104.25,19.37c-6.44-0.55-11.42,0-11.42,0s-4.76-0.05-6,5.17c0,0-1.19,3.56-1.56,8.37c0,0-1.6,7.89,6.1,7.89
		c0,0,4.23,0.62,11.2,0c0,0,4.69,0,6.29-5.39c1.7-5.29,1.51-8.39,1.51-8.39S111.29,19.47,104.25,19.37 M104.2,26.78l-1.19,6.44
		c-0.15,0.74-0.9,1.37-1.65,1.37h-8.89c-0.75,0-1.26-0.62-1.12-1.37l1.26-6.44c0.15-0.74,0.9-1.35,1.68-1.35h8.77
		C103.84,25.43,104.35,26.06,104.2,26.78"/>
	<path class="st2" d="M157.62,19.37c-6.44-0.55-11.42,0-11.42,0s-4.76-0.05-6,5.17c0,0-1.19,3.56-1.55,8.37c0,0-1.6,7.89,6.1,7.89
		c0,0,4.23,0.62,11.2,0c0,0,4.69,0,6.29-5.39c1.7-5.29,1.51-8.39,1.51-8.39S164.67,19.47,157.62,19.37 M157.57,26.78l-1.19,6.44
		c-0.15,0.74-0.9,1.37-1.65,1.37h-8.89c-0.75,0-1.26-0.63-1.12-1.37l1.26-6.44c0.15-0.74,0.9-1.35,1.68-1.35h8.77
		C157.21,25.43,157.72,26.06,157.57,26.78"/>
	<g>
		<defs>
			<path id="SVGID_1_" d="M26.09,25.26c-2.69,0-4.89,2.15-4.89,4.82c0,2.66,2.2,4.82,4.89,4.82h2.03l-1.44,8.03
				c0,2.66,2.18,4.82,4.88,4.82c2.44,0,4.48-1.79,4.83-4.13l1.62-8.72h5.24c2.69,0,4.88-2.15,4.88-4.82c0-2.66-2.19-4.82-4.88-4.82
				H26.09"/>
		</defs>
		<clipPath id="SVGID_2_">
			<use xlink:href="#SVGID_1_"  style="overflow:visible;"/>
		</clipPath>
	</g>
	<g>
		<defs>
			<path id="SVGID_3_" d="M33.89,27.15c0,0,5.42,0.51,4.45,5.89h4.91c1.64,0,2.96-1.36,2.96-2.97c0-1.61-1.31-2.93-2.96-2.93H33.89
				 M30.42,32.97l-1.77,9.92c0,1.61,1.31,2.93,2.96,2.93c1.52,0,2.67-1.22,2.94-2.58l1.83-10.12c1.2-5.84-3.32-5.95-3.67-5.95
				c-0.01,0-0.02,0-0.02,0h-6.59c-1.64,0-2.96,1.32-2.96,2.93c0,1.61,1.31,2.93,2.96,2.93L30.42,32.97 M31.57,47.74
				c-2.71,0-4.88-2.15-4.88-4.82l1.44-8.03h-2.03c-2.69,0-4.89-2.15-4.89-4.82c0-2.66,2.2-4.82,4.89-4.82h17.16
				c2.69,0,4.88,2.15,4.88,4.82c0,2.66-2.19,4.82-4.88,4.82h-5.24l-1.62,8.72C36.05,45.95,34.01,47.74,31.57,47.74"/>
		</defs>
		<clipPath id="SVGID_4_">
			<use xlink:href="#SVGID_3_"  style="overflow:visible;"/>
		</clipPath>
	</g>
	<g>
		<defs>
			<path id="SVGID_5_" d="M31.61,45.81c-1.64,0-2.96-1.32-2.96-2.93l1.77-9.92l-4.33,0.04c-1.64,0-2.96-1.32-2.96-2.93
				c0-1.61,1.31-2.93,2.96-2.93h6.59c0,0,0.01,0,0.02,0c0.35,0,4.88,0.11,3.67,5.95l-1.83,10.12
				C34.28,44.59,33.13,45.81,31.61,45.81"/>
		</defs>
		<clipPath id="SVGID_6_">
			<use xlink:href="#SVGID_5_"  style="overflow:visible;"/>
		</clipPath>
	</g>
	<g>
		<defs>
			<path id="SVGID_7_" d="M43.25,33.05h-4.91c0.96-5.38-4.45-5.89-4.45-5.89h9.36c1.64,0,2.96,1.32,2.96,2.93
				C46.21,31.68,44.9,33.05,43.25,33.05"/>
		</defs>
		<clipPath id="SVGID_8_">
			<use xlink:href="#SVGID_7_"  style="overflow:visible;"/>
		</clipPath>
	</g>
	<g>
		<defs>
			<path id="SVGID_9_" d="M35.06,15.46c-0.8,0-1.46,0.65-1.5,1.44c-0.02,0.79,0.6,1.42,1.4,1.42c0.8,0,1.48-0.63,1.5-1.42
				C36.5,16.12,35.86,15.46,35.06,15.46"/>
		</defs>
		<clipPath id="SVGID_10_">
			<use xlink:href="#SVGID_9_"  style="overflow:visible;"/>
		</clipPath>
	</g>
	<g>
		<defs>
			<path id="SVGID_11_" d="M34.96,18.33c-0.8,0-1.42-0.63-1.4-1.42c0.04-0.79,0.7-1.44,1.5-1.44c0.8,0,1.44,0.65,1.4,1.44
				C36.44,17.7,35.76,18.33,34.96,18.33"/>
		</defs>
		<clipPath id="SVGID_12_">
			<use xlink:href="#SVGID_11_"  style="overflow:visible;"/>
		</clipPath>
	</g>
</g>
</svg>
