<svg width="723" height="1723" viewBox="0 0 723 1723" fill="none" xmlns="http://www.w3.org/2000/svg">
<path opacity="0.03" d="M1231.3 1011.69C1210.98 1161.53 1126.8 1182.64 1067.38 1182.64H528.788L590.137 859.136H1117.89C1117.89 859.136 1251.24 865.137 1231.3 1011.69ZM1191.24 447.163L321.518 446.001C321.518 446.001 257.072 444.84 246.041 513.179L0.257383 1871.65C0.257383 1871.65 -8.0643 1963.99 69.9284 1963.99H312.422C312.422 1963.99 383.641 1966.31 396.026 1898.36C407.638 1837.57 439.764 1657.33 439.764 1657.33C439.764 1657.33 452.731 1595.77 503.629 1595.77H1089.83C1089.83 1595.77 1575.59 1606.22 1608.69 987.297C1608.69 987.297 1635.59 446.776 1191.05 446.776" fill="black"/>
</svg>
