<svg id="Layer_1" data-name="Layer 1" xmlns="http://www.w3.org/2000/svg" xmlns:xlink="http://www.w3.org/1999/xlink" viewBox="0 0 49.36 49.36">
  <defs>
    <style>
      .cls-1 {
        fill: none;
      }

      .cls-2 {
        clip-path: url(#clip-path);
      }

      .cls-3 {
        fill: #fff;
      }
    </style>
    <clipPath id="clip-path" transform="translate(-0.05 -0.5)">
      <rect id="SVGID" class="cls-1" x="0.05" y="0.5" width="49.36" height="49.36"/>
    </clipPath>
  </defs>
  <title>phone</title>
  <g class="cls-2">
    <path class="cls-3" d="M40,31.64c-4.79,1.09-7.66,1.59-8.61,1.48q-3.16-.27-7.4-4.5a55.41,55.41,0,0,1-4.68-5,15.74,15.74,0,0,1-2.66-6.23l1.6-7.46L10.23.5A35.2,35.2,0,0,0,5.27,2,22.17,22.17,0,0,0,.05,10.5Q2,14.67,8.23,22.43a140.1,140.1,0,0,0,9.76,11q12,12,21.42,16.41a21.72,21.72,0,0,0,8.52-5.26q1.05-3.23,1.48-4.92Z" transform="translate(-0.05 -0.5)"/>
  </g>
</svg>
