<svg width="262" height="40" viewBox="0 0 262 40" fill="none" xmlns="http://www.w3.org/2000/svg">
<g clip-path="url(#clip0_22_244)">
<path d="M250.745 39.2349C253.194 39.2349 255.439 37.2476 255.9 34.6769L260.96 6.41996C261.211 4.9888 260.885 3.58477 260.064 2.51309C259.251 1.46177 258.03 0.851318 256.7 0.851318L12.3448 0.925929C9.30612 0.925929 6.51163 3.2592 5.98257 6.25039C5.96901 6.2843 1.57379 32.5675 1.57379 32.5675C1.26856 34.2564 1.68231 36.0674 2.69294 37.3832C3.63574 38.6245 5.02621 39.3095 6.49128 39.3095L250.738 39.2349H250.745Z" fill="white"/>
<path d="M174.554 5.93171C174.812 4.59551 176.013 3.4967 177.288 3.4967H256.693C257.941 3.4967 258.776 4.59551 258.552 5.93171L253.465 34.2158C253.227 35.5181 252 36.6101 250.745 36.6101H171.333C170.071 36.6101 169.25 35.5181 169.467 34.2158L174.554 5.93171Z" fill="#ED1C24"/>
<path d="M45.1259 5.81636C45.3836 4.48015 46.5841 3.38135 47.8593 3.38135H170.464C171.712 3.38135 172.547 4.48015 172.323 5.81636L167.236 34.0936C166.998 35.3959 165.771 36.488 164.516 36.488H42.0058C40.7442 36.488 39.9235 35.3959 40.1405 34.0936L45.1259 5.81636Z" fill="#26247B"/>
<path d="M78.6531 9.43166C78.7751 8.69912 79.4738 8.09546 80.1724 8.09546L84.6626 8.11581C85.368 8.11581 85.8292 8.71269 85.6936 9.45201L81.963 30.6685C81.8274 31.4146 81.1423 32.0318 80.4573 32.0318L75.8857 32.0114C75.1939 32.0114 74.7123 31.3942 74.8412 30.6413L78.6598 9.44523L78.6531 9.43166Z" fill="white"/>
<path d="M129.151 23.6346C129.001 24.5096 128.215 25.1947 127.394 25.1947H118.108C117.294 25.1947 116.779 24.5096 116.908 23.6414L118.251 16.3228C118.407 15.4614 119.194 14.7696 120.001 14.7696H129.178C129.992 14.7696 130.541 15.4614 130.399 16.3364L129.144 23.6414L129.151 23.6346ZM130.467 7.87829C123.691 7.25428 118.495 7.87829 118.495 7.87829C118.495 7.87829 113.489 7.8376 112.173 13.7589C112.173 13.7589 110.953 17.8286 110.58 23.309C110.58 23.309 108.884 32.2555 116.955 32.2555C116.955 32.2555 121.398 32.9677 128.689 32.2555C128.689 32.2555 133.6 32.2555 135.303 26.1239C137.073 20.094 136.849 16.5941 136.849 16.5941C136.849 16.5941 137.826 8.00716 130.473 7.87829" fill="white"/>
<path d="M139.325 32.0385C137.622 32.0385 136.239 30.553 136.239 28.742C136.239 26.931 137.629 25.4321 139.325 25.4321L141.238 25.4185H153.196C153.976 25.4185 154.328 24.4418 154.328 24.4418C154.525 22.624 153.155 22.8071 153.155 22.8071H144.113C137.867 22.8071 138.267 16.6145 138.267 16.6145C138.518 7.75621 145.233 8.05465 145.233 8.05465H157.462L159.761 8.0343C161.477 8.0343 162.841 9.51972 162.841 11.3443C162.841 13.1688 161.47 14.6475 159.761 14.6475H145.565C145.49 14.6475 144.324 14.6882 144.324 16.0244C144.324 17.442 145.565 17.3063 145.565 17.3063H154.328C160.941 17.3063 160.473 23.7635 160.473 23.7635C160.141 32.3912 153.548 32.0452 153.548 32.0452C153.548 32.0452 144.236 32.052 142.201 32.052H139.325L139.325 32.0385Z" fill="white"/>
<path d="M55.0017 8.11572C53.2042 8.11572 51.7324 9.67576 51.7324 11.6156C51.7324 13.5555 53.2042 15.1223 55.0017 15.1223H58.7932C59.4986 15.1223 59.8174 16.1126 59.6885 16.8587L57.5045 28.7421C57.1721 30.4649 58.8882 32.0385 60.6178 32.0385H63.0596C63.7582 32.0317 64.4297 31.4145 64.5653 30.6684L66.9257 16.8587C67.0478 16.1126 67.5294 15.2919 68.4315 15.2919H74.0815C74.7734 15.2919 75.4652 14.8917 75.6009 14.1524L76.4419 9.45192C76.5708 8.7126 76.096 8.11572 75.4042 8.11572H55.0017Z" fill="white"/>
<path d="M104.238 17.0079C103.919 19.3683 102.589 19.7007 101.653 19.7007H93.1613L94.1312 14.6H102.454C102.454 14.6 104.556 14.695 104.244 17.0011M103.614 8.10216L89.8988 8.08181C89.8988 8.08181 88.8814 8.06147 88.7118 9.13992L84.8389 30.5531C84.8389 30.5531 84.7032 32.0114 85.9377 32.0114H89.7632C89.7632 32.0114 90.8891 32.0453 91.0858 30.9804C91.2689 30.024 91.7776 27.182 91.7776 27.182C91.7776 27.182 91.9811 26.2121 92.7815 26.2121H102.026C102.026 26.2121 109.684 26.3817 110.206 16.6213C110.206 16.6213 110.627 8.10216 103.62 8.10216" fill="white"/>
<path d="M34.4024 36.5493C36.1388 36.5493 37.8684 34.7383 38.1872 32.9205L42.657 6.63054C42.9894 4.79241 41.972 3.42908 40.2492 3.42908H12.6841C10.9477 3.42908 9.06885 4.79241 8.73649 6.63054L4.33449 32.9205C4.00213 34.7383 5.12129 36.5493 6.83732 36.5493H34.3956H34.4024Z" fill="#ED1C24"/>
<path d="M24.9404 15.475C28.0673 15.475 30.6515 12.7822 30.7668 9.45192C30.8686 6.1148 28.4403 3.42883 25.3474 3.42883C22.2545 3.42883 19.6499 6.1148 19.5346 9.45192C19.4328 12.7822 21.8611 15.475 24.9336 15.475" fill="white"/>
<path d="M25.0083 13.7184C27.1991 13.7184 29.0372 11.8056 29.1186 9.45204C29.1932 7.08485 27.484 5.17212 25.2931 5.17212C23.1023 5.17212 21.2574 7.08485 21.176 9.45204C21.0946 11.8056 22.7971 13.7184 25.0083 13.7184Z" fill="#26247B"/>
<path d="M24.0315 9.04503C24.7166 9.04503 25.2931 8.4278 25.3338 7.69526C25.3474 6.96273 24.8116 6.36584 24.1129 6.36584C23.4143 6.36584 22.8649 6.96273 22.8242 7.69526C22.8039 8.43458 23.3533 9.04503 24.0315 9.04503Z" fill="white"/>
<path d="M31.1669 15.5022H16.367C14.0473 15.5022 12.1685 17.5167 12.1685 20.0263C12.1685 22.5359 14.0473 24.53 16.367 24.53H18.1237L16.9028 32.0114C16.9028 34.5007 18.7884 36.5423 21.1013 36.5423C23.2108 36.5423 24.9607 34.8602 25.2727 32.6693L26.6564 24.5368H31.1669C33.507 24.5368 35.379 22.5223 35.379 20.0331C35.379 17.5438 33.507 15.509 31.1669 15.509" fill="white"/>
<path d="M22.0577 17.2792H16.367C14.9697 17.2792 13.8438 18.5001 13.8438 20.0262C13.8438 21.5523 14.9697 22.7325 16.367 22.7325H20.1043L18.5985 31.9774C18.5985 33.49 19.7312 34.7108 21.1488 34.7108C22.4511 34.7108 23.4278 33.5781 23.6652 32.2894L25.2321 22.8546C26.3241 17.1503 22.0509 17.286 22.0509 17.286" fill="#26247B"/>
<path d="M31.167 22.78C32.571 22.78 33.7173 21.5252 33.7173 20.0262C33.7173 18.5272 32.571 17.2792 31.167 17.2792H23.0955C23.0955 17.2792 27.7756 17.7404 26.9413 22.78H31.167Z" fill="#26247B"/>
<path d="M203.13 14.1591C203.822 10.1573 202.024 8.02075 197.249 8.02075H183.006C182.409 8.02075 181.893 8.44806 181.785 9.04495L177.912 30.7023C177.79 31.3941 178.319 32.0385 179.031 32.0385H192.359C197.643 32.0385 200.668 29.6645 201.536 24.686C202.011 22.1628 201.57 20.5349 199.712 19.2326C202.004 17.8083 202.757 16.3839 203.123 14.1659L203.13 14.1591ZM185.99 25.4117L186.458 22.8004H194.116C194.53 22.8004 194.842 23.1734 194.767 23.5804L194.557 24.6928C194.475 25.1133 194.116 25.4117 193.688 25.4117H185.99ZM194.842 17.286H187.455L187.93 14.6272H195.269C195.683 14.6272 195.988 15.0002 195.92 15.4004L195.717 16.5535C195.642 16.974 195.276 17.2792 194.848 17.2792L194.842 17.286Z" fill="white"/>
<path d="M250.779 8.02075H230.763C229.976 8.02075 229.298 8.58372 229.162 9.36374L228.457 13.2909C228.335 13.9828 228.864 14.6204 229.569 14.6204H234.955C235.355 14.6204 235.66 14.9866 235.592 15.38L232.852 30.7565C232.73 31.4212 233.246 32.0385 233.924 32.0385H238.258C239.119 32.0385 239.859 31.4212 240.008 30.5734L242.708 15.4207C242.789 14.9595 243.189 14.6272 243.657 14.6272H249.497C250.284 14.6272 250.955 14.0642 251.098 13.2909L251.817 9.28234C251.932 8.6312 251.43 8.03432 250.772 8.03432L250.779 8.02075Z" fill="white"/>
<path d="M225.778 13.2842L226.497 9.28233C226.612 8.63118 226.11 8.0343 225.452 8.0343H208.909C208.109 8.0343 207.424 8.61084 207.281 9.39763L203.469 30.7158C203.347 31.4077 203.876 32.052 204.588 32.052H220.942C221.803 32.052 222.542 31.4348 222.692 30.5869L223.39 26.6733C223.506 26.0289 223.01 25.4321 222.352 25.4321H212.341C211.927 25.4321 211.609 25.059 211.683 24.6453L211.873 23.5871C211.954 23.1395 212.341 22.8139 212.796 22.8139H222.271C223.058 22.8139 223.736 22.2509 223.879 21.4709L224.401 18.5611C224.516 17.9032 224.014 17.2995 223.343 17.2995H213.799C213.386 17.2995 213.067 16.9265 213.141 16.5127L213.338 15.4139C213.42 14.9663 213.806 14.6407 214.261 14.6407H224.15C224.95 14.6407 225.635 14.0642 225.778 13.2774L225.778 13.2842Z" fill="white"/>
</g>
<defs>
<clipPath id="clip0_22_244">
<rect width="259.562" height="38.4514" fill="white" transform="translate(1.47888 0.858154)"/>
</clipPath>
</defs>
</svg>
