<?xml version="1.0" encoding="UTF-8" standalone="no"?>
<svg
   xmlns:dc="http://purl.org/dc/elements/1.1/"
   xmlns:cc="http://creativecommons.org/ns#"
   xmlns:rdf="http://www.w3.org/1999/02/22-rdf-syntax-ns#"
   xmlns:svg="http://www.w3.org/2000/svg"
   xmlns="http://www.w3.org/2000/svg"
   xmlns:sodipodi="http://sodipodi.sourceforge.net/DTD/sodipodi-0.dtd"
   xmlns:inkscape="http://www.inkscape.org/namespaces/inkscape"
   inkscape:version="1.0 (4035a4fb49, 2020-05-01)"
   sodipodi:docname="youtube.svg"
   viewBox="0 0 666.66669 666.66669"
   height="666.66669"
   width="666.66669"
   xml:space="preserve"
   id="svg192"
   version="1.1"><metadata
     id="metadata198"><rdf:RDF><cc:Work
         rdf:about=""><dc:format>image/svg+xml</dc:format><dc:type
           rdf:resource="http://purl.org/dc/dcmitype/StillImage" /><dc:title></dc:title></cc:Work></rdf:RDF></metadata><defs
     id="defs196"><clipPath
       id="clipPath208"
       clipPathUnits="userSpaceOnUse"><path
         id="path206"
         d="M 0,0 H 500 V 500 H 0 Z" /></clipPath></defs><sodipodi:namedview
     inkscape:current-layer="g200"
     inkscape:window-maximized="0"
     inkscape:window-y="0"
     inkscape:window-x="0"
     inkscape:cy="333.33334"
     inkscape:cx="333.33334"
     inkscape:zoom="1.23"
     showgrid="false"
     id="namedview194"
     inkscape:window-height="480"
     inkscape:window-width="762"
     inkscape:pageshadow="2"
     inkscape:pageopacity="0"
     guidetolerance="10"
     gridtolerance="10"
     objecttolerance="10"
     borderopacity="1"
     bordercolor="#666666"
     pagecolor="#ffffff" /><g
     transform="matrix(1.3333333,0,0,-1.3333333,0,666.66667)"
     inkscape:label="yt"
     inkscape:groupmode="layer"
     id="g200"><g
       id="g202"><g
         clip-path="url(#clipPath208)"
         id="g204"><g
           transform="translate(481.6849,367.1505)"
           id="g210"><path
             id="path212"
             style="fill:#ffffff;fill-opacity:1;fill-rule:nonzero;stroke:none"
             d="m 0,0 c -5.561,20.941 -21.947,37.433 -42.753,43.031 -37.713,10.171 -188.932,10.171 -188.932,10.171 0,0 -151.219,0 -188.932,-10.171 -20.805,-5.598 -37.191,-22.09 -42.753,-43.031 -10.105,-37.957 -10.105,-117.15 -10.105,-117.15 0,0 0,-79.194 10.105,-117.151 5.562,-20.941 21.948,-37.433 42.753,-43.031 37.713,-10.17 188.932,-10.17 188.932,-10.17 0,0 151.219,0 188.932,10.17 20.806,5.598 37.192,22.09 42.753,43.031 10.105,37.957 10.105,117.151 10.105,117.151 0,0 0,79.193 -10.105,117.15 m -281.142,-189.052 v 143.803 l 126.39,-71.904 z" /></g></g></g></g></svg>
